<mxfile host="app.diagrams.net" agent="Mozilla/5.0 (Macintosh; Intel Mac OS X 10_15_7) AppleWebKit/605.1.15 (KHTML, like Gecko) Version/18.0 Safari/605.1.15" version="24.7.17">
  <diagram name="Pagina-1" id="HjIBQddtPdYiBKTeZB5s">
    <mxGraphModel dx="2369" dy="1091" grid="1" gridSize="10" guides="1" tooltips="1" connect="1" arrows="1" fold="1" page="1" pageScale="1" pageWidth="827" pageHeight="1169" math="0" shadow="0">
      <root>
        <mxCell id="0" />
        <mxCell id="1" parent="0" />
        <mxCell id="Ong_fKqzArSQrVqp5oQf-133" value="" style="shape=rhombus;perimeter=rhombusPerimeter;whiteSpace=wrap;html=1;align=center;" vertex="1" parent="1">
          <mxGeometry x="605.5" y="380" width="90" height="50" as="geometry" />
        </mxCell>
        <mxCell id="Ong_fKqzArSQrVqp5oQf-252" style="edgeStyle=orthogonalEdgeStyle;rounded=0;orthogonalLoop=1;jettySize=auto;html=1;entryX=0;entryY=0.5;entryDx=0;entryDy=0;" edge="1" parent="1" source="Ong_fKqzArSQrVqp5oQf-134" target="Ong_fKqzArSQrVqp5oQf-236">
          <mxGeometry relative="1" as="geometry" />
        </mxCell>
        <mxCell id="Ong_fKqzArSQrVqp5oQf-134" value="Tecnico" style="whiteSpace=wrap;html=1;align=center;" vertex="1" parent="1">
          <mxGeometry x="765.5" y="490" width="100" height="40" as="geometry" />
        </mxCell>
        <mxCell id="Ong_fKqzArSQrVqp5oQf-135" value="" style="whiteSpace=wrap;html=1;align=center;" vertex="1" parent="1">
          <mxGeometry x="425.5" y="490" width="100" height="40" as="geometry" />
        </mxCell>
        <mxCell id="Ong_fKqzArSQrVqp5oQf-136" value="" style="whiteSpace=wrap;html=1;align=center;" vertex="1" parent="1">
          <mxGeometry x="425.5" y="665" width="100" height="40" as="geometry" />
        </mxCell>
        <mxCell id="Ong_fKqzArSQrVqp5oQf-137" value="Categoria" style="whiteSpace=wrap;html=1;align=center;" vertex="1" parent="1">
          <mxGeometry x="464.5" y="280" width="100" height="40" as="geometry" />
        </mxCell>
        <mxCell id="Ong_fKqzArSQrVqp5oQf-251" style="edgeStyle=orthogonalEdgeStyle;rounded=0;orthogonalLoop=1;jettySize=auto;html=1;entryX=0;entryY=0.5;entryDx=0;entryDy=0;" edge="1" parent="1" target="Ong_fKqzArSQrVqp5oQf-236">
          <mxGeometry relative="1" as="geometry">
            <mxPoint x="865.5" y="402" as="sourcePoint" />
            <mxPoint x="1030" y="399.5100000000002" as="targetPoint" />
          </mxGeometry>
        </mxCell>
        <mxCell id="Ong_fKqzArSQrVqp5oQf-138" value="Ordinante" style="whiteSpace=wrap;html=1;align=center;" vertex="1" parent="1">
          <mxGeometry x="765.5" y="385.01" width="100" height="40" as="geometry" />
        </mxCell>
        <mxCell id="Ong_fKqzArSQrVqp5oQf-139" value="definisce" style="shape=rhombus;perimeter=rhombusPerimeter;whiteSpace=wrap;html=1;align=center;" vertex="1" parent="1">
          <mxGeometry x="605.5" y="660" width="90" height="50" as="geometry" />
        </mxCell>
        <mxCell id="Ong_fKqzArSQrVqp5oQf-140" value="" style="shape=rhombus;perimeter=rhombusPerimeter;whiteSpace=wrap;html=1;align=center;" vertex="1" parent="1">
          <mxGeometry x="605.5" y="485" width="90" height="50" as="geometry" />
        </mxCell>
        <mxCell id="Ong_fKqzArSQrVqp5oQf-141" value="" style="endArrow=none;html=1;rounded=0;exitX=0;exitY=0.5;exitDx=0;exitDy=0;entryX=1;entryY=0.5;entryDx=0;entryDy=0;" edge="1" parent="1" source="Ong_fKqzArSQrVqp5oQf-138" target="Ong_fKqzArSQrVqp5oQf-133">
          <mxGeometry width="50" height="50" relative="1" as="geometry">
            <mxPoint x="769.3199999999999" y="430.02571428571423" as="sourcePoint" />
            <mxPoint x="856.9977251184832" y="420.0054028436018" as="targetPoint" />
          </mxGeometry>
        </mxCell>
        <mxCell id="Ong_fKqzArSQrVqp5oQf-142" value="0,n" style="edgeLabel;html=1;align=center;verticalAlign=middle;resizable=0;points=[];" vertex="1" connectable="0" parent="Ong_fKqzArSQrVqp5oQf-141">
          <mxGeometry x="0.08" relative="1" as="geometry">
            <mxPoint x="25" y="-12" as="offset" />
          </mxGeometry>
        </mxCell>
        <mxCell id="Ong_fKqzArSQrVqp5oQf-143" value="" style="endArrow=none;html=1;rounded=0;entryX=0;entryY=0.5;entryDx=0;entryDy=0;exitX=1;exitY=0;exitDx=0;exitDy=0;" edge="1" parent="1" source="Ong_fKqzArSQrVqp5oQf-135" target="Ong_fKqzArSQrVqp5oQf-133">
          <mxGeometry width="50" height="50" relative="1" as="geometry">
            <mxPoint x="927" y="395" as="sourcePoint" />
            <mxPoint x="857" y="495" as="targetPoint" />
          </mxGeometry>
        </mxCell>
        <mxCell id="Ong_fKqzArSQrVqp5oQf-144" value="1,1" style="edgeLabel;html=1;align=center;verticalAlign=middle;resizable=0;points=[];" vertex="1" connectable="0" parent="Ong_fKqzArSQrVqp5oQf-143">
          <mxGeometry x="-0.1943" y="2" relative="1" as="geometry">
            <mxPoint x="-21" y="38" as="offset" />
          </mxGeometry>
        </mxCell>
        <mxCell id="Ong_fKqzArSQrVqp5oQf-145" value="" style="endArrow=none;html=1;rounded=0;entryX=1;entryY=0.5;entryDx=0;entryDy=0;exitX=0;exitY=0.5;exitDx=0;exitDy=0;" edge="1" parent="1" source="Ong_fKqzArSQrVqp5oQf-140" target="Ong_fKqzArSQrVqp5oQf-135">
          <mxGeometry width="50" height="50" relative="1" as="geometry">
            <mxPoint x="305.5" y="660" as="sourcePoint" />
            <mxPoint x="355.5" y="610" as="targetPoint" />
          </mxGeometry>
        </mxCell>
        <mxCell id="Ong_fKqzArSQrVqp5oQf-146" value="1,1" style="edgeLabel;html=1;align=center;verticalAlign=middle;resizable=0;points=[];" vertex="1" connectable="0" parent="Ong_fKqzArSQrVqp5oQf-145">
          <mxGeometry x="0.498" y="-3" relative="1" as="geometry">
            <mxPoint x="-11" y="9" as="offset" />
          </mxGeometry>
        </mxCell>
        <mxCell id="Ong_fKqzArSQrVqp5oQf-147" value="" style="endArrow=none;html=1;rounded=0;entryX=1;entryY=0.5;entryDx=0;entryDy=0;exitX=0;exitY=0.5;exitDx=0;exitDy=0;" edge="1" parent="1" source="Ong_fKqzArSQrVqp5oQf-134" target="Ong_fKqzArSQrVqp5oQf-140">
          <mxGeometry width="50" height="50" relative="1" as="geometry">
            <mxPoint x="545.5" y="670" as="sourcePoint" />
            <mxPoint x="595.5" y="620" as="targetPoint" />
          </mxGeometry>
        </mxCell>
        <mxCell id="Ong_fKqzArSQrVqp5oQf-148" value="0,n" style="edgeLabel;html=1;align=center;verticalAlign=middle;resizable=0;points=[];" vertex="1" connectable="0" parent="Ong_fKqzArSQrVqp5oQf-147">
          <mxGeometry x="-0.4107" y="-2" relative="1" as="geometry">
            <mxPoint x="12" y="-7" as="offset" />
          </mxGeometry>
        </mxCell>
        <mxCell id="Ong_fKqzArSQrVqp5oQf-149" value="" style="endArrow=none;html=1;rounded=0;entryX=0.5;entryY=1;entryDx=0;entryDy=0;exitX=1;exitY=0.5;exitDx=0;exitDy=0;" edge="1" parent="1" source="Ong_fKqzArSQrVqp5oQf-139" target="Ong_fKqzArSQrVqp5oQf-134">
          <mxGeometry width="50" height="50" relative="1" as="geometry">
            <mxPoint x="565.5" y="670" as="sourcePoint" />
            <mxPoint x="615.5" y="620" as="targetPoint" />
            <Array as="points">
              <mxPoint x="815.5" y="685" />
            </Array>
          </mxGeometry>
        </mxCell>
        <mxCell id="Ong_fKqzArSQrVqp5oQf-150" value="" style="endArrow=none;html=1;rounded=0;entryX=0;entryY=0.5;entryDx=0;entryDy=0;exitX=1;exitY=0.5;exitDx=0;exitDy=0;" edge="1" parent="1" source="Ong_fKqzArSQrVqp5oQf-136" target="Ong_fKqzArSQrVqp5oQf-139">
          <mxGeometry width="50" height="50" relative="1" as="geometry">
            <mxPoint x="565.5" y="670" as="sourcePoint" />
            <mxPoint x="615.5" y="620" as="targetPoint" />
          </mxGeometry>
        </mxCell>
        <mxCell id="Ong_fKqzArSQrVqp5oQf-151" value="associa" style="shape=rhombus;perimeter=rhombusPerimeter;whiteSpace=wrap;html=1;align=center;" vertex="1" parent="1">
          <mxGeometry x="469.5" y="380" width="90" height="50" as="geometry" />
        </mxCell>
        <mxCell id="Ong_fKqzArSQrVqp5oQf-152" value="" style="endArrow=none;html=1;rounded=0;entryX=0.5;entryY=1;entryDx=0;entryDy=0;exitX=0.5;exitY=0;exitDx=0;exitDy=0;" edge="1" parent="1" source="Ong_fKqzArSQrVqp5oQf-151" target="Ong_fKqzArSQrVqp5oQf-137">
          <mxGeometry width="50" height="50" relative="1" as="geometry">
            <mxPoint x="445.5" y="630" as="sourcePoint" />
            <mxPoint x="495.5" y="580" as="targetPoint" />
          </mxGeometry>
        </mxCell>
        <mxCell id="Ong_fKqzArSQrVqp5oQf-153" value="" style="endArrow=none;html=1;rounded=0;entryX=0.5;entryY=1;entryDx=0;entryDy=0;exitX=0.889;exitY=-0.029;exitDx=0;exitDy=0;exitPerimeter=0;" edge="1" parent="1" source="Ong_fKqzArSQrVqp5oQf-135" target="Ong_fKqzArSQrVqp5oQf-151">
          <mxGeometry width="50" height="50" relative="1" as="geometry">
            <mxPoint x="445.5" y="630" as="sourcePoint" />
            <mxPoint x="495.5" y="580" as="targetPoint" />
          </mxGeometry>
        </mxCell>
        <mxCell id="Ong_fKqzArSQrVqp5oQf-154" value="Caratteristica" style="whiteSpace=wrap;html=1;align=center;" vertex="1" parent="1">
          <mxGeometry x="126.5" y="100" width="100" height="40" as="geometry" />
        </mxCell>
        <mxCell id="Ong_fKqzArSQrVqp5oQf-155" value="contiene" style="shape=rhombus;perimeter=rhombusPerimeter;whiteSpace=wrap;html=1;align=center;" vertex="1" parent="1">
          <mxGeometry x="285.5" y="95" width="90" height="50" as="geometry" />
        </mxCell>
        <mxCell id="Ong_fKqzArSQrVqp5oQf-156" value="" style="endArrow=none;html=1;rounded=0;entryX=0;entryY=0.5;entryDx=0;entryDy=0;exitX=1;exitY=0.5;exitDx=0;exitDy=0;" edge="1" parent="1" source="Ong_fKqzArSQrVqp5oQf-155" target="Ong_fKqzArSQrVqp5oQf-185">
          <mxGeometry width="50" height="50" relative="1" as="geometry">
            <mxPoint x="435.5" y="560" as="sourcePoint" />
            <mxPoint x="485.5" y="510" as="targetPoint" />
          </mxGeometry>
        </mxCell>
        <mxCell id="Ong_fKqzArSQrVqp5oQf-157" value="" style="endArrow=none;html=1;rounded=0;entryX=1;entryY=0.5;entryDx=0;entryDy=0;exitX=0;exitY=0.5;exitDx=0;exitDy=0;" edge="1" parent="1" source="Ong_fKqzArSQrVqp5oQf-155" target="Ong_fKqzArSQrVqp5oQf-154">
          <mxGeometry width="50" height="50" relative="1" as="geometry">
            <mxPoint x="385.5" y="200" as="sourcePoint" />
            <mxPoint x="435.5" y="200" as="targetPoint" />
          </mxGeometry>
        </mxCell>
        <mxCell id="Ong_fKqzArSQrVqp5oQf-158" value="" style="shape=rhombus;perimeter=rhombusPerimeter;whiteSpace=wrap;html=1;align=center;" vertex="1" parent="1">
          <mxGeometry x="430.5" y="570" width="90" height="50" as="geometry" />
        </mxCell>
        <mxCell id="Ong_fKqzArSQrVqp5oQf-159" value="" style="endArrow=none;html=1;rounded=0;entryX=0.5;entryY=0;entryDx=0;entryDy=0;exitX=0.5;exitY=1;exitDx=0;exitDy=0;" edge="1" parent="1" source="Ong_fKqzArSQrVqp5oQf-135" target="Ong_fKqzArSQrVqp5oQf-158">
          <mxGeometry width="50" height="50" relative="1" as="geometry">
            <mxPoint x="195.5" y="790" as="sourcePoint" />
            <mxPoint x="195.5" y="540" as="targetPoint" />
          </mxGeometry>
        </mxCell>
        <mxCell id="Ong_fKqzArSQrVqp5oQf-160" value="" style="endArrow=none;html=1;rounded=0;entryX=0.5;entryY=1;entryDx=0;entryDy=0;exitX=0.5;exitY=0;exitDx=0;exitDy=0;" edge="1" parent="1" source="Ong_fKqzArSQrVqp5oQf-136" target="Ong_fKqzArSQrVqp5oQf-158">
          <mxGeometry width="50" height="50" relative="1" as="geometry">
            <mxPoint x="490.5" y="620" as="sourcePoint" />
            <mxPoint x="490.5" y="680" as="targetPoint" />
          </mxGeometry>
        </mxCell>
        <mxCell id="Ong_fKqzArSQrVqp5oQf-250" style="edgeStyle=orthogonalEdgeStyle;rounded=0;orthogonalLoop=1;jettySize=auto;html=1;entryX=0;entryY=0.5;entryDx=0;entryDy=0;" edge="1" parent="1" source="Ong_fKqzArSQrVqp5oQf-161" target="Ong_fKqzArSQrVqp5oQf-236">
          <mxGeometry relative="1" as="geometry">
            <mxPoint x="963" y="410" as="targetPoint" />
          </mxGeometry>
        </mxCell>
        <mxCell id="Ong_fKqzArSQrVqp5oQf-161" value="Amministratore" style="whiteSpace=wrap;html=1;align=center;" vertex="1" parent="1">
          <mxGeometry x="765.5" y="280" width="100" height="40" as="geometry" />
        </mxCell>
        <mxCell id="Ong_fKqzArSQrVqp5oQf-162" value="1,1" style="edgeLabel;html=1;align=center;verticalAlign=middle;resizable=0;points=[];" vertex="1" connectable="0" parent="1">
          <mxGeometry x="804.5" y="541" as="geometry">
            <mxPoint x="1" y="-3" as="offset" />
          </mxGeometry>
        </mxCell>
        <mxCell id="Ong_fKqzArSQrVqp5oQf-163" value="1,1" style="edgeLabel;html=1;align=center;verticalAlign=middle;resizable=0;points=[];" vertex="1" connectable="0" parent="1">
          <mxGeometry x="539.5" y="680" as="geometry">
            <mxPoint x="1" y="-3" as="offset" />
          </mxGeometry>
        </mxCell>
        <mxCell id="Ong_fKqzArSQrVqp5oQf-164" value="1,1" style="edgeLabel;html=1;align=center;verticalAlign=middle;resizable=0;points=[];" vertex="1" connectable="0" parent="1">
          <mxGeometry x="464.5" y="655" as="geometry">
            <mxPoint x="1" y="-3" as="offset" />
          </mxGeometry>
        </mxCell>
        <mxCell id="Ong_fKqzArSQrVqp5oQf-165" value="1,n" style="edgeLabel;html=1;align=center;verticalAlign=middle;resizable=0;points=[];" vertex="1" connectable="0" parent="1">
          <mxGeometry x="469.5" y="539" as="geometry">
            <mxPoint x="-6" y="-1" as="offset" />
          </mxGeometry>
        </mxCell>
        <mxCell id="Ong_fKqzArSQrVqp5oQf-166" value="1,1" style="edgeLabel;html=1;align=center;verticalAlign=middle;resizable=0;points=[];" vertex="1" connectable="0" parent="1">
          <mxGeometry x="503.5" y="484" as="geometry">
            <mxPoint x="1" y="-3" as="offset" />
          </mxGeometry>
        </mxCell>
        <mxCell id="Ong_fKqzArSQrVqp5oQf-167" value="1,n" style="edgeLabel;html=1;align=center;verticalAlign=middle;resizable=0;points=[];" vertex="1" connectable="0" parent="1">
          <mxGeometry x="502.5" y="331" as="geometry">
            <mxPoint x="1" y="-3" as="offset" />
          </mxGeometry>
        </mxCell>
        <mxCell id="Ong_fKqzArSQrVqp5oQf-168" value="1,n" style="edgeLabel;html=1;align=center;verticalAlign=middle;resizable=0;points=[];" vertex="1" connectable="0" parent="1">
          <mxGeometry x="452.5" y="115" as="geometry">
            <mxPoint x="1" y="-3" as="offset" />
          </mxGeometry>
        </mxCell>
        <mxCell id="Ong_fKqzArSQrVqp5oQf-169" value="1,n" style="edgeLabel;html=1;align=center;verticalAlign=middle;resizable=0;points=[];" vertex="1" connectable="0" parent="1">
          <mxGeometry x="235.5" y="114" as="geometry">
            <mxPoint x="1" y="-3" as="offset" />
          </mxGeometry>
        </mxCell>
        <mxCell id="Ong_fKqzArSQrVqp5oQf-170" value="associa" style="shape=rhombus;perimeter=rhombusPerimeter;whiteSpace=wrap;html=1;align=center;" vertex="1" parent="1">
          <mxGeometry x="285.5" y="380" width="90" height="50" as="geometry" />
        </mxCell>
        <mxCell id="Ong_fKqzArSQrVqp5oQf-171" value="" style="endArrow=none;html=1;rounded=0;entryX=0.5;entryY=1;entryDx=0;entryDy=0;exitX=0;exitY=0.5;exitDx=0;exitDy=0;" edge="1" parent="1" source="Ong_fKqzArSQrVqp5oQf-170" target="Ong_fKqzArSQrVqp5oQf-154">
          <mxGeometry width="50" height="50" relative="1" as="geometry">
            <mxPoint x="300.5" y="630" as="sourcePoint" />
            <mxPoint x="330.5" y="320" as="targetPoint" />
            <Array as="points">
              <mxPoint x="176.5" y="405" />
            </Array>
          </mxGeometry>
        </mxCell>
        <mxCell id="Ong_fKqzArSQrVqp5oQf-172" value="" style="endArrow=none;html=1;rounded=0;entryX=1;entryY=0.5;entryDx=0;entryDy=0;exitX=0.203;exitY=-0.029;exitDx=0;exitDy=0;exitPerimeter=0;" edge="1" parent="1" source="Ong_fKqzArSQrVqp5oQf-135" target="Ong_fKqzArSQrVqp5oQf-170">
          <mxGeometry width="50" height="50" relative="1" as="geometry">
            <mxPoint x="330.5" y="490" as="sourcePoint" />
            <mxPoint x="350.5" y="580" as="targetPoint" />
            <Array as="points">
              <mxPoint x="445.5" y="405" />
            </Array>
          </mxGeometry>
        </mxCell>
        <mxCell id="Ong_fKqzArSQrVqp5oQf-173" value="Revisione" style="ellipse;whiteSpace=wrap;html=1;align=center;" vertex="1" parent="1">
          <mxGeometry x="351.5" y="622.5" width="70" height="25" as="geometry" />
        </mxCell>
        <mxCell id="Ong_fKqzArSQrVqp5oQf-174" value="" style="endArrow=none;html=1;rounded=0;entryX=0.5;entryY=1;entryDx=0;entryDy=0;exitX=0.5;exitY=0;exitDx=0;exitDy=0;" edge="1" parent="1" source="Ong_fKqzArSQrVqp5oQf-136" target="Ong_fKqzArSQrVqp5oQf-173">
          <mxGeometry width="50" height="50" relative="1" as="geometry">
            <mxPoint x="475.5" y="590" as="sourcePoint" />
            <mxPoint x="525.5" y="540" as="targetPoint" />
          </mxGeometry>
        </mxCell>
        <mxCell id="Ong_fKqzArSQrVqp5oQf-175" value="1,n" style="edgeLabel;html=1;align=center;verticalAlign=middle;resizable=0;points=[];" vertex="1" connectable="0" parent="1">
          <mxGeometry x="185.5" y="150" as="geometry">
            <mxPoint x="1" y="-3" as="offset" />
          </mxGeometry>
        </mxCell>
        <mxCell id="Ong_fKqzArSQrVqp5oQf-176" value="1,n" style="edgeLabel;html=1;align=center;verticalAlign=middle;resizable=0;points=[];" vertex="1" connectable="0" parent="1">
          <mxGeometry x="455.5" y="485" as="geometry">
            <mxPoint x="1" y="-3" as="offset" />
          </mxGeometry>
        </mxCell>
        <mxCell id="Ong_fKqzArSQrVqp5oQf-177" value="nome" style="ellipse;whiteSpace=wrap;html=1;align=center;fontStyle=4" vertex="1" parent="1">
          <mxGeometry x="625.5" y="287.5" width="42" height="25" as="geometry" />
        </mxCell>
        <mxCell id="Ong_fKqzArSQrVqp5oQf-178" value="" style="endArrow=none;html=1;rounded=0;exitX=1;exitY=0.5;exitDx=0;exitDy=0;entryX=0;entryY=0.5;entryDx=0;entryDy=0;" edge="1" parent="1" source="Ong_fKqzArSQrVqp5oQf-137" target="Ong_fKqzArSQrVqp5oQf-177">
          <mxGeometry width="50" height="50" relative="1" as="geometry">
            <mxPoint x="679.5" y="260" as="sourcePoint" />
            <mxPoint x="709.5" y="290" as="targetPoint" />
          </mxGeometry>
        </mxCell>
        <mxCell id="Ong_fKqzArSQrVqp5oQf-179" value="nome" style="ellipse;whiteSpace=wrap;html=1;align=center;fontStyle=4" vertex="1" parent="1">
          <mxGeometry x="207.5" y="50" width="42" height="25" as="geometry" />
        </mxCell>
        <mxCell id="Ong_fKqzArSQrVqp5oQf-180" value="" style="endArrow=none;html=1;rounded=0;exitX=0.5;exitY=0;exitDx=0;exitDy=0;entryX=0.5;entryY=1;entryDx=0;entryDy=0;" edge="1" parent="1" source="Ong_fKqzArSQrVqp5oQf-154" target="Ong_fKqzArSQrVqp5oQf-179">
          <mxGeometry width="50" height="50" relative="1" as="geometry">
            <mxPoint x="165.5" y="130" as="sourcePoint" />
            <mxPoint x="284.5" y="130" as="targetPoint" />
          </mxGeometry>
        </mxCell>
        <mxCell id="Ong_fKqzArSQrVqp5oQf-181" value="valore" style="ellipse;whiteSpace=wrap;html=1;align=center;" vertex="1" parent="1">
          <mxGeometry x="309.5" y="330" width="42" height="25" as="geometry" />
        </mxCell>
        <mxCell id="Ong_fKqzArSQrVqp5oQf-182" value="" style="endArrow=none;html=1;rounded=0;exitX=0.5;exitY=0;exitDx=0;exitDy=0;entryX=0.5;entryY=1;entryDx=0;entryDy=0;" edge="1" parent="1" source="Ong_fKqzArSQrVqp5oQf-170" target="Ong_fKqzArSQrVqp5oQf-181">
          <mxGeometry width="50" height="50" relative="1" as="geometry">
            <mxPoint x="345.5" y="395" as="sourcePoint" />
            <mxPoint x="540.5" y="405" as="targetPoint" />
          </mxGeometry>
        </mxCell>
        <mxCell id="Ong_fKqzArSQrVqp5oQf-183" value="verifica" style="ellipse;whiteSpace=wrap;html=1;align=center;" vertex="1" parent="1">
          <mxGeometry x="358.5" y="557.49" width="67" height="25" as="geometry" />
        </mxCell>
        <mxCell id="Ong_fKqzArSQrVqp5oQf-184" value="" style="endArrow=none;html=1;rounded=0;exitX=1;exitY=0;exitDx=0;exitDy=0;entryX=0;entryY=1;entryDx=0;entryDy=0;" edge="1" parent="1" source="Ong_fKqzArSQrVqp5oQf-183" target="Ong_fKqzArSQrVqp5oQf-135">
          <mxGeometry width="50" height="50" relative="1" as="geometry">
            <mxPoint x="825.5" y="500" as="sourcePoint" />
            <mxPoint x="825.5" y="465" as="targetPoint" />
          </mxGeometry>
        </mxCell>
        <mxCell id="Ong_fKqzArSQrVqp5oQf-185" value="Sotto-Categoria" style="whiteSpace=wrap;html=1;align=center;" vertex="1" parent="1">
          <mxGeometry x="464.5" y="100" width="100" height="40" as="geometry" />
        </mxCell>
        <mxCell id="Ong_fKqzArSQrVqp5oQf-186" value="nome" style="ellipse;whiteSpace=wrap;html=1;align=center;fontStyle=4" vertex="1" parent="1">
          <mxGeometry x="493.5" y="40" width="42" height="25" as="geometry" />
        </mxCell>
        <mxCell id="Ong_fKqzArSQrVqp5oQf-187" value="" style="endArrow=none;html=1;rounded=0;exitX=0.5;exitY=0;exitDx=0;exitDy=0;entryX=0.5;entryY=1;entryDx=0;entryDy=0;" edge="1" parent="1" source="Ong_fKqzArSQrVqp5oQf-185" target="Ong_fKqzArSQrVqp5oQf-186">
          <mxGeometry width="50" height="50" relative="1" as="geometry">
            <mxPoint x="589" y="125" as="sourcePoint" />
            <mxPoint x="734" y="115" as="targetPoint" />
          </mxGeometry>
        </mxCell>
        <mxCell id="Ong_fKqzArSQrVqp5oQf-188" value="descrizione" style="ellipse;whiteSpace=wrap;html=1;align=center;" vertex="1" parent="1">
          <mxGeometry x="88.5" y="50" width="70" height="25" as="geometry" />
        </mxCell>
        <mxCell id="Ong_fKqzArSQrVqp5oQf-189" value="" style="endArrow=none;html=1;rounded=0;entryX=0.5;entryY=1;entryDx=0;entryDy=0;exitX=0.5;exitY=0;exitDx=0;exitDy=0;" edge="1" parent="1" source="Ong_fKqzArSQrVqp5oQf-154" target="Ong_fKqzArSQrVqp5oQf-188">
          <mxGeometry width="50" height="50" relative="1" as="geometry">
            <mxPoint x="405.5" y="320" as="sourcePoint" />
            <mxPoint x="455.5" y="270" as="targetPoint" />
          </mxGeometry>
        </mxCell>
        <mxCell id="Ong_fKqzArSQrVqp5oQf-190" value="note" style="ellipse;whiteSpace=wrap;html=1;align=center;" vertex="1" parent="1">
          <mxGeometry x="484" y="622.5" width="61" height="25" as="geometry" />
        </mxCell>
        <mxCell id="Ong_fKqzArSQrVqp5oQf-191" value="" style="endArrow=none;html=1;rounded=0;exitX=0.5;exitY=1;exitDx=0;exitDy=0;entryX=0.5;entryY=0;entryDx=0;entryDy=0;" edge="1" parent="1" source="Ong_fKqzArSQrVqp5oQf-190" target="Ong_fKqzArSQrVqp5oQf-136">
          <mxGeometry width="50" height="50" relative="1" as="geometry">
            <mxPoint x="245.5" y="590" as="sourcePoint" />
            <mxPoint x="204.5" y="620" as="targetPoint" />
          </mxGeometry>
        </mxCell>
        <mxCell id="Ong_fKqzArSQrVqp5oQf-192" value="rev_motivazione" style="ellipse;whiteSpace=wrap;html=1;align=center;" vertex="1" parent="1">
          <mxGeometry x="564.5" y="620" width="90" height="30" as="geometry" />
        </mxCell>
        <mxCell id="Ong_fKqzArSQrVqp5oQf-193" value="" style="endArrow=none;html=1;rounded=0;entryX=0.5;entryY=0;entryDx=0;entryDy=0;exitX=0.5;exitY=1;exitDx=0;exitDy=0;" edge="1" parent="1" source="Ong_fKqzArSQrVqp5oQf-192" target="Ong_fKqzArSQrVqp5oQf-136">
          <mxGeometry width="50" height="50" relative="1" as="geometry">
            <mxPoint x="485.5" y="715" as="sourcePoint" />
            <mxPoint x="465.5" y="783" as="targetPoint" />
          </mxGeometry>
        </mxCell>
        <mxCell id="Ong_fKqzArSQrVqp5oQf-194" value="note" style="ellipse;whiteSpace=wrap;html=1;align=center;" vertex="1" parent="1">
          <mxGeometry x="355" y="440" width="42" height="25" as="geometry" />
        </mxCell>
        <mxCell id="Ong_fKqzArSQrVqp5oQf-195" value="" style="endArrow=none;html=1;rounded=0;exitX=1;exitY=1;exitDx=0;exitDy=0;entryX=0;entryY=0;entryDx=0;entryDy=0;" edge="1" parent="1" source="Ong_fKqzArSQrVqp5oQf-194" target="Ong_fKqzArSQrVqp5oQf-135">
          <mxGeometry width="50" height="50" relative="1" as="geometry">
            <mxPoint x="601.5" y="475" as="sourcePoint" />
            <mxPoint x="535.5" y="500" as="targetPoint" />
          </mxGeometry>
        </mxCell>
        <mxCell id="Ong_fKqzArSQrVqp5oQf-196" value="stato" style="ellipse;whiteSpace=wrap;html=1;align=center;" vertex="1" parent="1">
          <mxGeometry x="553.5" y="545" width="42" height="25" as="geometry" />
        </mxCell>
        <mxCell id="Ong_fKqzArSQrVqp5oQf-197" value="" style="endArrow=none;html=1;rounded=0;exitX=1;exitY=1;exitDx=0;exitDy=0;entryX=0;entryY=0;entryDx=0;entryDy=0;" edge="1" parent="1" source="Ong_fKqzArSQrVqp5oQf-135" target="Ong_fKqzArSQrVqp5oQf-196">
          <mxGeometry width="50" height="50" relative="1" as="geometry">
            <mxPoint x="395.5" y="475" as="sourcePoint" />
            <mxPoint x="435.5" y="500" as="targetPoint" />
          </mxGeometry>
        </mxCell>
        <mxCell id="Ong_fKqzArSQrVqp5oQf-198" value="include" style="shape=rhombus;perimeter=rhombusPerimeter;whiteSpace=wrap;html=1;align=center;" vertex="1" parent="1">
          <mxGeometry x="469.5" y="180" width="90" height="50" as="geometry" />
        </mxCell>
        <mxCell id="Ong_fKqzArSQrVqp5oQf-199" value="" style="endArrow=none;html=1;rounded=0;entryX=0.5;entryY=1;entryDx=0;entryDy=0;exitX=0.5;exitY=0;exitDx=0;exitDy=0;" edge="1" parent="1" source="Ong_fKqzArSQrVqp5oQf-198" target="Ong_fKqzArSQrVqp5oQf-185">
          <mxGeometry width="50" height="50" relative="1" as="geometry">
            <mxPoint x="701.5" y="490" as="sourcePoint" />
            <mxPoint x="770.5" y="180" as="targetPoint" />
          </mxGeometry>
        </mxCell>
        <mxCell id="Ong_fKqzArSQrVqp5oQf-200" value="" style="endArrow=none;html=1;rounded=0;entryX=0.5;entryY=1;entryDx=0;entryDy=0;exitX=0.5;exitY=0;exitDx=0;exitDy=0;" edge="1" parent="1" source="Ong_fKqzArSQrVqp5oQf-137" target="Ong_fKqzArSQrVqp5oQf-198">
          <mxGeometry width="50" height="50" relative="1" as="geometry">
            <mxPoint x="770.5" y="349" as="sourcePoint" />
            <mxPoint x="751.5" y="440" as="targetPoint" />
          </mxGeometry>
        </mxCell>
        <mxCell id="Ong_fKqzArSQrVqp5oQf-201" value="1,n" style="edgeLabel;html=1;align=center;verticalAlign=middle;resizable=0;points=[];" vertex="1" connectable="0" parent="1">
          <mxGeometry x="503.5" y="275" as="geometry">
            <mxPoint x="1" y="-3" as="offset" />
          </mxGeometry>
        </mxCell>
        <mxCell id="Ong_fKqzArSQrVqp5oQf-202" value="1,1" style="edgeLabel;html=1;align=center;verticalAlign=middle;resizable=0;points=[];" vertex="1" connectable="0" parent="1">
          <mxGeometry x="503.5" y="150" as="geometry">
            <mxPoint x="1" y="-3" as="offset" />
          </mxGeometry>
        </mxCell>
        <mxCell id="Ong_fKqzArSQrVqp5oQf-203" value="Prodotto" style="whiteSpace=wrap;html=1;align=center;" vertex="1" parent="1">
          <mxGeometry x="135.5" y="665" width="100" height="40" as="geometry" />
        </mxCell>
        <mxCell id="Ong_fKqzArSQrVqp5oQf-204" value="nome" style="ellipse;whiteSpace=wrap;html=1;align=center;" vertex="1" parent="1">
          <mxGeometry x="104.5" y="615" width="61" height="20" as="geometry" />
        </mxCell>
        <mxCell id="Ong_fKqzArSQrVqp5oQf-205" value="produttore" style="ellipse;whiteSpace=wrap;html=1;align=center;" vertex="1" parent="1">
          <mxGeometry x="205" y="615" width="75.5" height="20" as="geometry" />
        </mxCell>
        <mxCell id="Ong_fKqzArSQrVqp5oQf-206" value="codice" style="ellipse;whiteSpace=wrap;html=1;align=center;fontStyle=4" vertex="1" parent="1">
          <mxGeometry x="80" y="747.5" width="61" height="25" as="geometry" />
        </mxCell>
        <mxCell id="Ong_fKqzArSQrVqp5oQf-207" value="prezzo" style="ellipse;whiteSpace=wrap;html=1;align=center;" vertex="1" parent="1">
          <mxGeometry x="155" y="747.5" width="61" height="25" as="geometry" />
        </mxCell>
        <mxCell id="Ong_fKqzArSQrVqp5oQf-208" value="URL" style="ellipse;whiteSpace=wrap;html=1;align=center;" vertex="1" parent="1">
          <mxGeometry x="226.5" y="747.5" width="61" height="25" as="geometry" />
        </mxCell>
        <mxCell id="Ong_fKqzArSQrVqp5oQf-209" value="" style="endArrow=none;html=1;rounded=0;exitX=0.5;exitY=0;exitDx=0;exitDy=0;entryX=0.5;entryY=1;entryDx=0;entryDy=0;" edge="1" parent="1" source="Ong_fKqzArSQrVqp5oQf-203" target="Ong_fKqzArSQrVqp5oQf-205">
          <mxGeometry width="50" height="50" relative="1" as="geometry">
            <mxPoint x="-84.5" y="550" as="sourcePoint" />
            <mxPoint x="-125.5" y="580" as="targetPoint" />
          </mxGeometry>
        </mxCell>
        <mxCell id="Ong_fKqzArSQrVqp5oQf-210" value="" style="endArrow=none;html=1;rounded=0;exitX=0.5;exitY=1;exitDx=0;exitDy=0;entryX=0.5;entryY=0;entryDx=0;entryDy=0;" edge="1" parent="1" source="Ong_fKqzArSQrVqp5oQf-203" target="Ong_fKqzArSQrVqp5oQf-206">
          <mxGeometry width="50" height="50" relative="1" as="geometry">
            <mxPoint x="-74.5" y="560" as="sourcePoint" />
            <mxPoint x="-115.5" y="590" as="targetPoint" />
          </mxGeometry>
        </mxCell>
        <mxCell id="Ong_fKqzArSQrVqp5oQf-211" value="" style="endArrow=none;html=1;rounded=0;exitX=0.5;exitY=0;exitDx=0;exitDy=0;entryX=0.5;entryY=1;entryDx=0;entryDy=0;" edge="1" parent="1" source="Ong_fKqzArSQrVqp5oQf-207" target="Ong_fKqzArSQrVqp5oQf-203">
          <mxGeometry width="50" height="50" relative="1" as="geometry">
            <mxPoint x="-64.5" y="570" as="sourcePoint" />
            <mxPoint x="-105.5" y="600" as="targetPoint" />
          </mxGeometry>
        </mxCell>
        <mxCell id="Ong_fKqzArSQrVqp5oQf-212" value="" style="endArrow=none;html=1;rounded=0;exitX=0.5;exitY=1;exitDx=0;exitDy=0;entryX=0.5;entryY=0;entryDx=0;entryDy=0;" edge="1" parent="1" source="Ong_fKqzArSQrVqp5oQf-203" target="Ong_fKqzArSQrVqp5oQf-208">
          <mxGeometry width="50" height="50" relative="1" as="geometry">
            <mxPoint x="-54.5" y="580" as="sourcePoint" />
            <mxPoint x="-95.5" y="610" as="targetPoint" />
          </mxGeometry>
        </mxCell>
        <mxCell id="Ong_fKqzArSQrVqp5oQf-213" value="propone" style="shape=rhombus;perimeter=rhombusPerimeter;whiteSpace=wrap;html=1;align=center;" vertex="1" parent="1">
          <mxGeometry x="285.5" y="660" width="90" height="50" as="geometry" />
        </mxCell>
        <mxCell id="Ong_fKqzArSQrVqp5oQf-214" value="" style="endArrow=none;html=1;rounded=0;exitX=1;exitY=0.5;exitDx=0;exitDy=0;entryX=0;entryY=0.5;entryDx=0;entryDy=0;" edge="1" parent="1" source="Ong_fKqzArSQrVqp5oQf-203" target="Ong_fKqzArSQrVqp5oQf-213">
          <mxGeometry width="50" height="50" relative="1" as="geometry">
            <mxPoint x="235.5" y="685" as="sourcePoint" />
            <mxPoint x="355.4977251184833" y="754.9954028436018" as="targetPoint" />
          </mxGeometry>
        </mxCell>
        <mxCell id="Ong_fKqzArSQrVqp5oQf-215" value="0,n" style="edgeLabel;html=1;align=center;verticalAlign=middle;resizable=0;points=[];" vertex="1" connectable="0" parent="Ong_fKqzArSQrVqp5oQf-214">
          <mxGeometry x="0.08" relative="1" as="geometry">
            <mxPoint x="-17" y="-10" as="offset" />
          </mxGeometry>
        </mxCell>
        <mxCell id="Ong_fKqzArSQrVqp5oQf-216" value="" style="endArrow=none;html=1;rounded=0;entryX=1;entryY=0.5;entryDx=0;entryDy=0;exitX=0;exitY=0.5;exitDx=0;exitDy=0;" edge="1" parent="1" source="Ong_fKqzArSQrVqp5oQf-136" target="Ong_fKqzArSQrVqp5oQf-213">
          <mxGeometry width="50" height="50" relative="1" as="geometry">
            <mxPoint x="425.5" y="685" as="sourcePoint" />
            <mxPoint x="355.5" y="785" as="targetPoint" />
          </mxGeometry>
        </mxCell>
        <mxCell id="Ong_fKqzArSQrVqp5oQf-217" value="1,1" style="edgeLabel;html=1;align=center;verticalAlign=middle;resizable=0;points=[];" vertex="1" connectable="0" parent="Ong_fKqzArSQrVqp5oQf-216">
          <mxGeometry x="-0.1943" y="2" relative="1" as="geometry">
            <mxPoint x="9" y="-12" as="offset" />
          </mxGeometry>
        </mxCell>
        <mxCell id="Ong_fKqzArSQrVqp5oQf-218" value="" style="endArrow=none;html=1;rounded=0;entryX=0.5;entryY=1;entryDx=0;entryDy=0;exitX=0.5;exitY=0;exitDx=0;exitDy=0;" edge="1" parent="1" source="Ong_fKqzArSQrVqp5oQf-203" target="Ong_fKqzArSQrVqp5oQf-204">
          <mxGeometry width="50" height="50" relative="1" as="geometry">
            <mxPoint x="185.5" y="640" as="sourcePoint" />
            <mxPoint x="252.5" y="645" as="targetPoint" />
          </mxGeometry>
        </mxCell>
        <mxCell id="Ong_fKqzArSQrVqp5oQf-219" value="definisce" style="shape=rhombus;perimeter=rhombusPerimeter;whiteSpace=wrap;html=1;align=center;" vertex="1" parent="1">
          <mxGeometry x="615.5" y="385" width="70" height="39.5" as="geometry" />
        </mxCell>
        <mxCell id="Ong_fKqzArSQrVqp5oQf-220" value="assegna" style="shape=rhombus;perimeter=rhombusPerimeter;whiteSpace=wrap;html=1;align=center;" vertex="1" parent="1">
          <mxGeometry x="615.5" y="490.5" width="70" height="39.5" as="geometry" />
        </mxCell>
        <mxCell id="Ong_fKqzArSQrVqp5oQf-221" value="Richiesta" style="whiteSpace=wrap;html=1;align=center;" vertex="1" parent="1">
          <mxGeometry x="432.19" y="495.8699999999999" width="86.62" height="28.25" as="geometry" />
        </mxCell>
        <mxCell id="Ong_fKqzArSQrVqp5oQf-222" value="Proposta" style="whiteSpace=wrap;html=1;align=center;" vertex="1" parent="1">
          <mxGeometry x="431.5" y="670.8800000000001" width="86.62" height="28.25" as="geometry" />
        </mxCell>
        <mxCell id="Ong_fKqzArSQrVqp5oQf-223" value="segue" style="shape=rhombus;perimeter=rhombusPerimeter;whiteSpace=wrap;html=1;align=center;" vertex="1" parent="1">
          <mxGeometry x="440" y="575.5" width="70" height="39.5" as="geometry" />
        </mxCell>
        <mxCell id="Ong_fKqzArSQrVqp5oQf-224" value="Ordine" style="whiteSpace=wrap;html=1;align=center;" vertex="1" parent="1">
          <mxGeometry x="425.5" y="850" width="100" height="40" as="geometry" />
        </mxCell>
        <mxCell id="Ong_fKqzArSQrVqp5oQf-225" value="diventa" style="shape=rhombus;perimeter=rhombusPerimeter;whiteSpace=wrap;html=1;align=center;" vertex="1" parent="1">
          <mxGeometry x="430.5" y="759.5" width="90" height="50" as="geometry" />
        </mxCell>
        <mxCell id="Ong_fKqzArSQrVqp5oQf-226" value="" style="endArrow=none;html=1;rounded=0;entryX=0.5;entryY=0;entryDx=0;entryDy=0;exitX=0.5;exitY=1;exitDx=0;exitDy=0;" edge="1" parent="1" source="Ong_fKqzArSQrVqp5oQf-136" target="Ong_fKqzArSQrVqp5oQf-225">
          <mxGeometry width="50" height="50" relative="1" as="geometry">
            <mxPoint x="535.5" y="695" as="sourcePoint" />
            <mxPoint x="605.5" y="695" as="targetPoint" />
          </mxGeometry>
        </mxCell>
        <mxCell id="Ong_fKqzArSQrVqp5oQf-227" value="" style="endArrow=none;html=1;rounded=0;entryX=0.5;entryY=1;entryDx=0;entryDy=0;exitX=0.5;exitY=0;exitDx=0;exitDy=0;" edge="1" parent="1" source="Ong_fKqzArSQrVqp5oQf-224" target="Ong_fKqzArSQrVqp5oQf-225">
          <mxGeometry width="50" height="50" relative="1" as="geometry">
            <mxPoint x="485.5" y="715" as="sourcePoint" />
            <mxPoint x="485.5" y="783" as="targetPoint" />
          </mxGeometry>
        </mxCell>
        <mxCell id="Ong_fKqzArSQrVqp5oQf-228" value="data di consegna" style="ellipse;whiteSpace=wrap;html=1;align=center;" vertex="1" parent="1">
          <mxGeometry x="543.5" y="809.5" width="82" height="40.5" as="geometry" />
        </mxCell>
        <mxCell id="Ong_fKqzArSQrVqp5oQf-229" value="stato" style="ellipse;whiteSpace=wrap;html=1;align=center;" vertex="1" parent="1">
          <mxGeometry x="333.5" y="814.75" width="52" height="30" as="geometry" />
        </mxCell>
        <mxCell id="Ong_fKqzArSQrVqp5oQf-230" value="" style="endArrow=none;html=1;rounded=0;entryX=1;entryY=0.5;entryDx=0;entryDy=0;exitX=0.5;exitY=0;exitDx=0;exitDy=0;" edge="1" parent="1" source="Ong_fKqzArSQrVqp5oQf-224" target="Ong_fKqzArSQrVqp5oQf-229">
          <mxGeometry width="50" height="50" relative="1" as="geometry">
            <mxPoint x="435.5" y="695" as="sourcePoint" />
            <mxPoint x="385.5" y="695" as="targetPoint" />
          </mxGeometry>
        </mxCell>
        <mxCell id="Ong_fKqzArSQrVqp5oQf-231" value="0,1" style="edgeLabel;html=1;align=center;verticalAlign=middle;resizable=0;points=[];" vertex="1" connectable="0" parent="Ong_fKqzArSQrVqp5oQf-230">
          <mxGeometry x="-0.1943" y="2" relative="1" as="geometry">
            <mxPoint x="27" y="-130" as="offset" />
          </mxGeometry>
        </mxCell>
        <mxCell id="Ong_fKqzArSQrVqp5oQf-232" value="" style="endArrow=none;html=1;rounded=0;entryX=0.5;entryY=0;entryDx=0;entryDy=0;exitX=0;exitY=0.5;exitDx=0;exitDy=0;" edge="1" parent="1" source="Ong_fKqzArSQrVqp5oQf-228" target="Ong_fKqzArSQrVqp5oQf-224">
          <mxGeometry width="50" height="50" relative="1" as="geometry">
            <mxPoint x="485.5" y="860" as="sourcePoint" />
            <mxPoint x="395.5" y="840" as="targetPoint" />
          </mxGeometry>
        </mxCell>
        <mxCell id="Ong_fKqzArSQrVqp5oQf-233" value="1,1" style="edgeLabel;html=1;align=center;verticalAlign=middle;resizable=0;points=[];" vertex="1" connectable="0" parent="Ong_fKqzArSQrVqp5oQf-232">
          <mxGeometry x="-0.1943" y="2" relative="1" as="geometry">
            <mxPoint x="-50" y="-3" as="offset" />
          </mxGeometry>
        </mxCell>
        <mxCell id="Ong_fKqzArSQrVqp5oQf-234" value="&lt;u&gt;codice&lt;/u&gt;" style="ellipse;whiteSpace=wrap;html=1;align=center;" vertex="1" parent="1">
          <mxGeometry x="449.5" y="930" width="52" height="30" as="geometry" />
        </mxCell>
        <mxCell id="Ong_fKqzArSQrVqp5oQf-235" value="" style="endArrow=none;html=1;rounded=0;entryX=0.5;entryY=1;entryDx=0;entryDy=0;exitX=0.5;exitY=0;exitDx=0;exitDy=0;" edge="1" parent="1" source="Ong_fKqzArSQrVqp5oQf-234" target="Ong_fKqzArSQrVqp5oQf-224">
          <mxGeometry width="50" height="50" relative="1" as="geometry">
            <mxPoint x="485.5" y="715" as="sourcePoint" />
            <mxPoint x="485.5" y="770" as="targetPoint" />
          </mxGeometry>
        </mxCell>
        <mxCell id="Ong_fKqzArSQrVqp5oQf-236" value="Utente" style="whiteSpace=wrap;html=1;align=center;" vertex="1" parent="1">
          <mxGeometry x="1030" y="382.51" width="100" height="40" as="geometry" />
        </mxCell>
        <mxCell id="Ong_fKqzArSQrVqp5oQf-239" value="username" style="ellipse;whiteSpace=wrap;html=1;align=center;fontStyle=4" vertex="1" parent="1">
          <mxGeometry x="970" y="332.51" width="70" height="25" as="geometry" />
        </mxCell>
        <mxCell id="Ong_fKqzArSQrVqp5oQf-240" value="password" style="ellipse;whiteSpace=wrap;html=1;align=center;" vertex="1" parent="1">
          <mxGeometry x="1121" y="332.51" width="70" height="25" as="geometry" />
        </mxCell>
        <mxCell id="Ong_fKqzArSQrVqp5oQf-241" value="" style="endArrow=none;html=1;rounded=0;exitX=0.5;exitY=0;exitDx=0;exitDy=0;entryX=0.5;entryY=1;entryDx=0;entryDy=0;" edge="1" parent="1" source="Ong_fKqzArSQrVqp5oQf-236" target="Ong_fKqzArSQrVqp5oQf-239">
          <mxGeometry width="50" height="50" relative="1" as="geometry">
            <mxPoint x="1140" y="412.51" as="sourcePoint" />
            <mxPoint x="1190" y="412.51" as="targetPoint" />
          </mxGeometry>
        </mxCell>
        <mxCell id="Ong_fKqzArSQrVqp5oQf-242" value="" style="endArrow=none;html=1;rounded=0;exitX=0.5;exitY=1;exitDx=0;exitDy=0;entryX=0.5;entryY=0;entryDx=0;entryDy=0;" edge="1" parent="1" source="Ong_fKqzArSQrVqp5oQf-240" target="Ong_fKqzArSQrVqp5oQf-236">
          <mxGeometry width="50" height="50" relative="1" as="geometry">
            <mxPoint x="1090" y="392.51" as="sourcePoint" />
            <mxPoint x="1037" y="367.51" as="targetPoint" />
          </mxGeometry>
        </mxCell>
        <mxCell id="Ong_fKqzArSQrVqp5oQf-243" value="mail" style="ellipse;whiteSpace=wrap;html=1;align=center;" vertex="1" parent="1">
          <mxGeometry x="1060" y="332.51" width="42" height="25" as="geometry" />
        </mxCell>
        <mxCell id="Ong_fKqzArSQrVqp5oQf-244" value="" style="endArrow=none;html=1;rounded=0;exitX=0.5;exitY=0;exitDx=0;exitDy=0;entryX=0.5;entryY=1;entryDx=0;entryDy=0;" edge="1" parent="1" source="Ong_fKqzArSQrVqp5oQf-236" target="Ong_fKqzArSQrVqp5oQf-243">
          <mxGeometry width="50" height="50" relative="1" as="geometry">
            <mxPoint x="1000" y="382.51" as="sourcePoint" />
            <mxPoint x="1110" y="412.51" as="targetPoint" />
          </mxGeometry>
        </mxCell>
        <mxCell id="Ong_fKqzArSQrVqp5oQf-245" value="nome" style="ellipse;whiteSpace=wrap;html=1;align=center;" vertex="1" parent="1">
          <mxGeometry x="1018" y="452.51" width="42" height="25" as="geometry" />
        </mxCell>
        <mxCell id="Ong_fKqzArSQrVqp5oQf-246" value="cognome" style="ellipse;whiteSpace=wrap;html=1;align=center;" vertex="1" parent="1">
          <mxGeometry x="1099.5" y="452.51" width="61" height="25" as="geometry" />
        </mxCell>
        <mxCell id="Ong_fKqzArSQrVqp5oQf-247" value="" style="endArrow=none;html=1;rounded=0;exitX=0.5;exitY=1;exitDx=0;exitDy=0;entryX=0.5;entryY=0;entryDx=0;entryDy=0;" edge="1" parent="1" source="Ong_fKqzArSQrVqp5oQf-236" target="Ong_fKqzArSQrVqp5oQf-245">
          <mxGeometry width="50" height="50" relative="1" as="geometry">
            <mxPoint x="1090" y="392.51" as="sourcePoint" />
            <mxPoint x="971" y="367.51" as="targetPoint" />
          </mxGeometry>
        </mxCell>
        <mxCell id="Ong_fKqzArSQrVqp5oQf-248" value="" style="endArrow=none;html=1;rounded=0;exitX=0.5;exitY=1;exitDx=0;exitDy=0;entryX=0.5;entryY=0;entryDx=0;entryDy=0;" edge="1" parent="1" source="Ong_fKqzArSQrVqp5oQf-236" target="Ong_fKqzArSQrVqp5oQf-246">
          <mxGeometry width="50" height="50" relative="1" as="geometry">
            <mxPoint x="1100" y="402.51" as="sourcePoint" />
            <mxPoint x="981" y="377.51" as="targetPoint" />
          </mxGeometry>
        </mxCell>
        <mxCell id="Ong_fKqzArSQrVqp5oQf-253" value="ruolo" style="ellipse;whiteSpace=wrap;html=1;align=center;" vertex="1" parent="1">
          <mxGeometry x="1191" y="390.01" width="70" height="25" as="geometry" />
        </mxCell>
        <mxCell id="Ong_fKqzArSQrVqp5oQf-254" value="" style="endArrow=none;html=1;rounded=0;exitX=0;exitY=0.5;exitDx=0;exitDy=0;entryX=1;entryY=0.5;entryDx=0;entryDy=0;" edge="1" parent="1" source="Ong_fKqzArSQrVqp5oQf-253" target="Ong_fKqzArSQrVqp5oQf-236">
          <mxGeometry width="50" height="50" relative="1" as="geometry">
            <mxPoint x="1176" y="402.51" as="sourcePoint" />
            <mxPoint x="1153" y="435.5" as="targetPoint" />
          </mxGeometry>
        </mxCell>
      </root>
    </mxGraphModel>
  </diagram>
</mxfile>
